<?xml version="1.0" encoding="UTF-8" standalone="no"?>
<!-- Created with Inkscape (http://www.inkscape.org/) -->

<svg
   xmlns:dc="http://purl.org/dc/elements/1.1/"
   xmlns:cc="http://creativecommons.org/ns#"
   xmlns:rdf="http://www.w3.org/1999/02/22-rdf-syntax-ns#"
   xmlns:svg="http://www.w3.org/2000/svg"
   xmlns="http://www.w3.org/2000/svg"
   xmlns:sodipodi="http://sodipodi.sourceforge.net/DTD/sodipodi-0.dtd"
   xmlns:inkscape="http://www.inkscape.org/namespaces/inkscape"
   width="67.73333mm"
   height="33.866665mm"
   viewBox="0 0 67.73333 33.866665"
   version="1.1"
   id="svg8"
   inkscape:version="0.92.3 (2405546, 2018-03-11)"
   sodipodi:docname="flames.svg">
  <defs
     id="defs2" />
  <sodipodi:namedview
     id="base"
     pagecolor="#808080"
     bordercolor="#666666"
     borderopacity="1.0"
     inkscape:pageopacity="0"
     inkscape:pageshadow="2"
     inkscape:zoom="1.4"
     inkscape:cx="98.60744"
     inkscape:cy="84.966139"
     inkscape:document-units="mm"
     inkscape:current-layer="layer1"
     showgrid="false"
     inkscape:window-width="1366"
     inkscape:window-height="712"
     inkscape:window-x="0"
     inkscape:window-y="30"
     inkscape:window-maximized="1" />
  <metadata
     id="metadata5">
    <rdf:RDF>
      <cc:Work
         rdf:about="">
        <dc:format>image/svg+xml</dc:format>
        <dc:type
           rdf:resource="http://purl.org/dc/dcmitype/StillImage" />
        <dc:title></dc:title>
      </cc:Work>
    </rdf:RDF>
  </metadata>
  <g
     inkscape:label="Layer 1"
     inkscape:groupmode="layer"
     id="layer1"
     transform="translate(292.40237,-100.15)">
    <g
       style="stroke-width:0.94145525"
       transform="matrix(-0.28103655,0,0,0.28103655,230.71636,-383.77527)"
       id="g1888">
      <path
         style="vector-effect:none;fill:#ffee12;fill-opacity:1;stroke:none;stroke-width:3.5587008;stroke-linejoin:miter;stroke-miterlimit:4;stroke-dasharray:none;stroke-opacity:1"
         d="m 1745.6966,1833.5208 h 110.8812 l -2.7311,-30.5879 -0.8193,13.6553 -7.1008,-15.8401 -4.3697,18.8443 -13.9284,-12.2898 -7.1008,10.105 -6.2814,-7.647 -4.916,10.9242 -3.5503,-16.9326 -3.8235,17.4788 -3.2773,-22.3947 -4.3697,23.2141 -1.6387,-12.0167 -1.9117,12.2898 -6.2814,-31.4073 -2.7311,22.1216 -2.1849,-10.1049 -2.1848,16.3864 -4.3697,-7.1008 -6.5546,5.7353 -3.0041,-12.0167 -3.0042,16.9326 -8.1932,-3.2773 -1.0924,10.1049 -3.8235,-12.2897 z"
         id="path1884"
         inkscape:connector-curvature="0"
         sodipodi:nodetypes="cccccccccccccccccccccccccccc" />
      <path
         style="vector-effect:none;fill:#ff870a;fill-opacity:1;stroke:none;stroke-width:3.5587008;stroke-linejoin:miter;stroke-miterlimit:4;stroke-dasharray:none;stroke-opacity:1"
         d="m 1782.7389,1816.0929 c -0.6024,5.0738 -2.1165,0.095 -2.4981,-2.2075 -0.7149,-4.4926 -0.911,3.1128 -1.3707,4.5743 -0.6311,1.8093 -0.124,8.634 -2.1836,4.1452 -1.7391,-1.3104 -2.749,-7.1372 -5.0393,-5.0329 -1.8592,0.8428 -4.9864,5.4799 -6.0099,3.8214 -0.6907,-2.0424 -1.4762,-6.6314 -2.1098,-7.1241 -0.7714,4.0747 -1.5424,8.1494 -2.314,12.2241 -2.7035,-1.0134 -5.4069,-2.027 -8.1103,-3.0405 -0.4963,3.5976 -0.6209,9.3555 -1.5059,10.0333 h 103.8867 c -0.4808,-0.9664 -0.9616,-9.3393 -1.4424,-14.3876 0.1787,4.7149 -0.955,3.1573 -2.3358,-0.264 -1.8252,-3.8174 -3.6504,-7.6347 -5.4757,-11.452 -1.3591,5.4947 -2.718,10.9894 -4.0771,16.4841 -4.7834,-3.9558 -9.5657,-7.9127 -14.3487,-11.8689 -2.4045,3.2084 -4.8097,6.4163 -7.2138,9.625 -2.0309,-2.3182 -4.0619,-4.6363 -6.0928,-6.9544 -1.8386,3.8296 -3.6768,7.6594 -5.5156,11.489 -1.0736,-4.8036 -2.1485,-9.607 -3.2227,-14.4105 -1.3433,4.9395 -1.9104,10.0927 -3.9121,14.8508 -1.858,-5.9279 -2.1211,-12.1837 -3.292,-18.2529 -1.5408,6.2607 -1.9609,12.8177 -4.3213,18.8618 -1.1962,-1.5541 -1.2661,-7.9858 -1.7825,-6.6249 -0.366,1.5332 -0.8655,7.6357 -1.9648,6.1204 -2.5163,-8.3746 -3.7563,-17.0833 -5.7751,-25.5882 -0.6576,4.993 -1.3151,9.986 -1.9727,14.979 z m -35.9346,17.3933 c 4.5138,0.1608 4.6481,-0.011 2.8054,-3.4017 -0.9288,-2.7419 -2.0904,-7.6568 -2.1283,-2.0827 z m 4.5518,0.2111 c 1.0555,0.053 -0.3403,-0.274 0,0 z"
         id="path1886"
         inkscape:connector-curvature="0"
         sodipodi:nodetypes="ccccccccccccccccccccccccccccccccc" />
    </g>
    <g
       style="stroke-width:0.94145525"
       transform="matrix(0.28103655,0,0,0.28103655,-781.33415,-384.05568)"
       id="g1894">
      <path
         inkscape:connector-curvature="0"
         id="path1890"
         d="m 1865.659,1833.5845 3.8623,-23.1738 0.3863,11.2007 3.476,-9.2695 8.1109,8.8833 7.7247,-12.7456 4.2485,17.7666 1.9312,-16.2217 9.6557,12.3594 5.4073,-18.5391 7.3383,19.6978 10.8145,-26.2637 5.7934,15.4492 0.7725,-6.5659 6.1797,10.4282 2.7036,-23.5601 3.0899,24.7188 5.7935,-11.9731 2.3173,13.1318 3.0899,-22.7876 6.1796,23.9463 5.7935,-15.063 4.2485,13.9043 0.7725,14.6767 z"
         style="vector-effect:none;fill:#ffee12;fill-opacity:1;stroke:none;stroke-width:3.5587008;stroke-linejoin:miter;stroke-miterlimit:4;stroke-dasharray:none;stroke-opacity:1" />
      <path
         sodipodi:nodetypes="ccccccccccccccccccccccccccc"
         inkscape:connector-curvature="0"
         id="path1892"
         d="m 1918.7252,1823.9618 c -1.1335,3.8097 -2.0671,-1.1867 -3.0843,-2.4827 l -5.0641,-10.1911 c -1.7033,4.378 -3.4052,8.7565 -5.1094,13.1343 -3.1202,-2.9957 -6.2416,-5.9907 -9.3623,-8.9862 -0.8653,4.1901 -0.8884,8.5033 -2.458,12.5903 -2.3765,-4.3819 -3.1522,-9.1465 -4.834,-13.6945 -2.3856,2.9509 -4.7696,5.9025 -7.1562,8.8529 -2.6357,-2.1664 -5.2736,-4.3314 -7.9102,-6.4972 -1.4168,2.6732 -2.4802,5.4628 -4.3711,7.9801 -0.47,-3.5255 -0.6317,-3.5107 -1.2486,0 0.3595,1.7474 -2.9449,7.9601 0.2125,7.9205 h 105.954 c -0.5286,-6.6339 0.075,-12.2262 -2.6101,-16.9154 -0.8452,-2.841 -1.7377,-4.6781 -2.9,-0.7941 -1.479,2.8836 -2.9581,5.7672 -4.4371,8.6508 -1.8967,-5.5063 -3.7909,-11.0131 -5.6865,-16.5196 -1.2133,5.1091 -1.2564,10.4229 -3.3369,15.3803 -1.7594,-3.0366 -1.8766,-6.4128 -2.8233,-9.6174 -1.9729,3.0579 -3.9451,6.116 -5.9189,9.1736 -0.8238,-4.9489 -1.6498,-9.8976 -2.4746,-14.8464 -0.6973,4.5556 -1.3944,9.1112 -2.0918,13.6668 -2.0616,-2.6096 -4.1243,-5.2186 -6.1865,-7.8278 -0.4813,1.1052 -0.3623,6.7545 -1.5317,4.4083 -2.0186,-3.738 -3.8036,-7.5447 -5.7252,-11.3112 l -9.8457,17.9299 z"
         style="vector-effect:none;fill:#ff870a;fill-opacity:1;stroke:none;stroke-width:3.5587008;stroke-linejoin:miter;stroke-miterlimit:4;stroke-dasharray:none;stroke-opacity:1" />
    </g>
    <g
       style="stroke-width:0.94145525"
       transform="matrix(0.28103655,0,0,0.28103655,-780.88092,-400.98901)"
       id="g1900">
      <path
         style="vector-effect:none;fill:#ffee12;fill-opacity:1;stroke:none;stroke-width:3.5587008;stroke-linejoin:miter;stroke-miterlimit:4;stroke-dasharray:none;stroke-opacity:1"
         d="m 1865.659,1833.5845 3.8623,-23.1738 0.3863,11.2007 3.476,-9.2695 8.1109,8.8833 7.7247,-12.7456 4.2485,17.7666 1.9312,-16.2217 9.6557,12.3594 5.4073,-18.5391 7.3383,19.6978 10.8145,-26.2637 5.7934,15.4492 0.7725,-6.5659 6.1797,10.4282 2.7036,-23.5601 3.0899,24.7188 5.7935,-11.9731 2.3173,13.1318 3.0899,-22.7876 6.1796,23.9463 5.7935,-15.063 4.2485,13.9043 0.7725,14.6767 z"
         id="path1896"
         inkscape:connector-curvature="0" />
      <path
         style="vector-effect:none;fill:#ff870a;fill-opacity:1;stroke:none;stroke-width:3.5587008;stroke-linejoin:miter;stroke-miterlimit:4;stroke-dasharray:none;stroke-opacity:1"
         d="m 1918.7252,1823.9618 c -1.1335,3.8097 -2.0671,-1.1867 -3.0843,-2.4827 l -5.0641,-10.1911 c -1.7033,4.378 -3.4052,8.7565 -5.1094,13.1343 -3.1202,-2.9957 -6.2416,-5.9907 -9.3623,-8.9862 -0.8653,4.1901 -0.8884,8.5033 -2.458,12.5903 -2.3765,-4.3819 -3.1522,-9.1465 -4.834,-13.6945 -2.3856,2.9509 -4.7696,5.9025 -7.1562,8.8529 -2.6357,-2.1664 -5.2736,-4.3314 -7.9102,-6.4972 -1.4168,2.6732 -2.4802,5.4628 -4.3711,7.9801 -0.47,-3.5255 -0.6317,-3.5107 -1.2486,0 0.3595,1.7474 -2.9449,7.9601 0.2125,7.9205 h 105.954 c -0.5286,-6.6339 0.075,-12.2262 -2.6101,-16.9154 -0.8452,-2.841 -1.7377,-4.6781 -2.9,-0.7941 -1.479,2.8836 -2.9581,5.7672 -4.4371,8.6508 -1.8967,-5.5063 -3.7909,-11.0131 -5.6865,-16.5196 -1.2133,5.1091 -1.2564,10.4229 -3.3369,15.3803 -1.7594,-3.0366 -1.8766,-6.4128 -2.8233,-9.6174 -1.9729,3.0579 -3.9451,6.116 -5.9189,9.1736 -0.8238,-4.9489 -1.6498,-9.8976 -2.4746,-14.8464 -0.6973,4.5556 -1.3944,9.1112 -2.0918,13.6668 -2.0616,-2.6096 -4.1243,-5.2186 -6.1865,-7.8278 -0.4813,1.1052 -0.3623,6.7545 -1.5317,4.4083 -2.0186,-3.738 -3.8036,-7.5447 -5.7252,-11.3112 l -9.8457,17.9299 z"
         id="path1898"
         inkscape:connector-curvature="0"
         sodipodi:nodetypes="ccccccccccccccccccccccccccc" />
    </g>
    <g
       style="stroke-width:0.94145525"
       transform="matrix(0.28103655,0,0,0.28103655,-780.25338,-400.7086)"
       id="g1906">
      <path
         sodipodi:nodetypes="cccccccccccccccccccccccccccc"
         inkscape:connector-curvature="0"
         id="path1902"
         d="m 1745.6966,1833.5208 h 110.8812 l -2.7311,-30.5879 -0.8193,13.6553 -7.1008,-15.8401 -4.3697,18.8443 -13.9284,-12.2898 -7.1008,10.105 -6.2814,-7.647 -4.916,10.9242 -3.5503,-16.9326 -3.8235,17.4788 -3.2773,-22.3947 -4.3697,23.2141 -1.6387,-12.0167 -1.9117,12.2898 -6.2814,-31.4073 -2.7311,22.1216 -2.1849,-10.1049 -2.1848,16.3864 -4.3697,-7.1008 -6.5546,5.7353 -3.0041,-12.0167 -3.0042,16.9326 -8.1932,-3.2773 -1.0924,10.1049 -3.8235,-12.2897 z"
         style="vector-effect:none;fill:#ffee12;fill-opacity:1;stroke:none;stroke-width:3.5587008;stroke-linejoin:miter;stroke-miterlimit:4;stroke-dasharray:none;stroke-opacity:1" />
      <path
         sodipodi:nodetypes="ccccccccccccccccccccccccccccccccc"
         inkscape:connector-curvature="0"
         id="path1904"
         d="m 1782.7389,1816.0929 c -0.6024,5.0738 -2.1165,0.095 -2.4981,-2.2075 -0.7149,-4.4926 -0.911,3.1128 -1.3707,4.5743 -0.6311,1.8093 -0.124,8.634 -2.1836,4.1452 -1.7391,-1.3104 -2.749,-7.1372 -5.0393,-5.0329 -1.8592,0.8428 -4.9864,5.4799 -6.0099,3.8214 -0.6907,-2.0424 -1.4762,-6.6314 -2.1098,-7.1241 -0.7714,4.0747 -1.5424,8.1494 -2.314,12.2241 -2.7035,-1.0134 -5.4069,-2.027 -8.1103,-3.0405 -0.4963,3.5976 -0.6209,9.3555 -1.5059,10.0333 h 103.8867 c -0.4808,-0.9664 -0.9616,-9.3393 -1.4424,-14.3876 0.1787,4.7149 -0.955,3.1573 -2.3358,-0.264 -1.8252,-3.8174 -3.6504,-7.6347 -5.4757,-11.452 -1.3591,5.4947 -2.718,10.9894 -4.0771,16.4841 -4.7834,-3.9558 -9.5657,-7.9127 -14.3487,-11.8689 -2.4045,3.2084 -4.8097,6.4163 -7.2138,9.625 -2.0309,-2.3182 -4.0619,-4.6363 -6.0928,-6.9544 -1.8386,3.8296 -3.6768,7.6594 -5.5156,11.489 -1.0736,-4.8036 -2.1485,-9.607 -3.2227,-14.4105 -1.3433,4.9395 -1.9104,10.0927 -3.9121,14.8508 -1.858,-5.9279 -2.1211,-12.1837 -3.292,-18.2529 -1.5408,6.2607 -1.9609,12.8177 -4.3213,18.8618 -1.1962,-1.5541 -1.2661,-7.9858 -1.7825,-6.6249 -0.366,1.5332 -0.8655,7.6357 -1.9648,6.1204 -2.5163,-8.3746 -3.7563,-17.0833 -5.7751,-25.5882 -0.6576,4.993 -1.3151,9.986 -1.9727,14.979 z m -35.9346,17.3933 c 4.5138,0.1608 4.6481,-0.011 2.8054,-3.4017 -0.9288,-2.7419 -2.0904,-7.6568 -2.1283,-2.0827 z m 4.5518,0.2111 c 1.0555,0.053 -0.3403,-0.274 0,0 z"
         style="vector-effect:none;fill:#ff870a;fill-opacity:1;stroke:none;stroke-width:3.5587008;stroke-linejoin:miter;stroke-miterlimit:4;stroke-dasharray:none;stroke-opacity:1" />
    </g>
  </g>
</svg>
